<svg viewBox="0 0 18.7518 15.7558" fill="none" xmlns="http://www.w3.org/2000/svg" xmlns:xlink="http://www.w3.org/1999/xlink" x="0" y="0"><path id="Vector_16" d="M7.0768,0.3279l-6.75,6.75c-0.1,0.11 -0.18,0.23 -0.24,0.37c-0.06,0.14 -0.09,0.28 -0.09,0.43c0,0.15 0.03,0.3 0.09,0.43c0.06,0.14 0.14,0.26 0.24,0.37l6.75,6.75c0.22,0.21 0.5,0.33 0.8,0.33c0.3,0 0.59,-0.12 0.8,-0.33c0.21,-0.21 0.33,-0.5 0.33,-0.8c0,-0.3 -0.12,-0.58 -0.33,-0.8l-4.83,-4.82h13.78c0.3,0 0.58,-0.12 0.8,-0.33c0.21,-0.22 0.32,-0.5 0.32,-0.8c0,-0.3 -0.11,-0.58 -0.32,-0.8c-0.22,-0.21 -0.5,-0.32 -0.8,-0.32h-13.78l4.83,-4.83c0.21,-0.22 0.33,-0.5 0.33,-0.8c0,-0.3 -0.12,-0.59 -0.33,-0.8c-0.21,-0.21 -0.5,-0.33 -0.8,-0.33c-0.3,0 -0.58,0.12 -0.8,0.33z" fill="black"/></svg>