<svg viewBox="0 0 22.1251 20.25" fill="none" xmlns="http://www.w3.org/2000/svg" xmlns:xlink="http://www.w3.org/1999/xlink" x="0" y="0"><path id="Vector_5" d="M9.37,18.375c0,0.3708 -0.1,0.7334 -0.31,1.0417c-0.21,0.3083 -0.5,0.5487 -0.84,0.6906c-0.35,0.1419 -0.72,0.179 -1.09,0.1067c-0.36,-0.0724 -0.69,-0.251 -0.96,-0.5132c-0.26,-0.2622 -0.44,-0.5963 -0.51,-0.96c-0.07,-0.3637 -0.03,-0.7407 0.11,-1.0833c0.14,-0.3426 0.38,-0.6355 0.69,-0.8415c0.31,-0.206 0.67,-0.316 1.04,-0.316c0.5,0 0.97,0.1975 1.33,0.5492c0.35,0.3516 0.54,0.8285 0.54,1.3258zM17.25,16.5c-0.37,0 -0.73,0.11 -1.04,0.316c-0.31,0.206 -0.55,0.4989 -0.69,0.8415c-0.14,0.3426 -0.18,0.7196 -0.11,1.0833c0.07,0.3637 0.25,0.6978 0.51,0.96c0.27,0.2622 0.6,0.4408 0.96,0.5132c0.37,0.0723 0.74,0.0352 1.09,-0.1067c0.34,-0.1419 0.63,-0.3823 0.84,-0.6906c0.21,-0.3083 0.31,-0.6709 0.31,-1.0417c0,-0.4973 -0.19,-0.9742 -0.54,-1.3258c-0.36,-0.3517 -0.83,-0.5492 -1.33,-0.5492zM22.08,5.2059l-2.56,8.3157c-0.17,0.5377 -0.5,1.0085 -0.95,1.3424c-0.45,0.3339 -1,0.5131 -1.56,0.511h-9.24c-0.57,-0.0018 -1.12,-0.1884 -1.57,-0.5317c-0.46,-0.3432 -0.79,-0.8247 -0.95,-1.3724l-3.21,-11.2209h-0.92c-0.29,0 -0.58,-0.1185 -0.79,-0.3295c-0.21,-0.211 -0.33,-0.4971 -0.33,-0.7955c0,-0.2984 0.12,-0.5845 0.33,-0.7955c0.21,-0.211 0.5,-0.3295 0.79,-0.3295h1.21c0.4,0.0013 0.8,0.1345 1.12,0.3798c0.33,0.2452 0.57,0.5893 0.68,0.9805l0.68,2.3897h16.19c0.18,0 0.35,0.0413 0.51,0.1206c0.15,0.0793 0.29,0.1944 0.4,0.336c0.1,0.1417 0.17,0.3059 0.2,0.4794c0.03,0.1736 0.02,0.3517 -0.03,0.5199zM19.48,6h-14.02l1.95,6.8531c0.03,0.0784 0.07,0.1474 0.14,0.1964c0.06,0.0491 0.14,0.0756 0.22,0.0755h9.24c0.08,0.0002 0.16,-0.0254 0.22,-0.073c0.06,-0.0476 0.11,-0.1147 0.14,-0.1914z" fill="black"/></svg>