<svg viewBox="0 0 11.5039 6.5038" fill="none" xmlns="http://www.w3.org/2000/svg" xmlns:xlink="http://www.w3.org/1999/xlink" x="0" y="0"><path id="Vector_3" d="M11.2829,1.2831l-5,5c-0.07,0.0699 -0.153,0.1254 -0.244,0.1633c-0.091,0.0378 -0.189,0.0573 -0.288,0.0573c-0.098,0 -0.196,-0.0195 -0.287,-0.0573c-0.091,-0.0379 -0.174,-0.0934 -0.244,-0.1633l-5,-5c-0.141,-0.1409 -0.22,-0.332 -0.22,-0.5312c0,-0.1993 0.079,-0.3904 0.22,-0.5313c0.141,-0.1409 0.332,-0.22 0.531,-0.22c0.2,0 0.391,0.0791 0.532,0.22l4.469,4.4694l4.469,-4.47c0.141,-0.1409 0.332,-0.22 0.532,-0.22c0.199,0 0.39,0.0791 0.531,0.22c0.141,0.1409 0.22,0.332 0.22,0.5313c0,0.1992 -0.079,0.3903 -0.22,0.5312z" fill="black"/></svg>