<svg viewBox="0 0 20.25 15.75" fill="none" xmlns="http://www.w3.org/2000/svg" xmlns:xlink="http://www.w3.org/1999/xlink" x="0" y="0"><path id="Vector_17" d="M19.125,-0.005h-18c-0.298,0 -0.585,0.12 -0.795,0.33c-0.211,0.22 -0.33,0.5 -0.33,0.8v12.75c0,0.5 0.198,0.97 0.549,1.33c0.352,0.35 0.829,0.55 1.326,0.55h16.5c0.497,0 0.974,-0.2 1.326,-0.55c0.351,-0.36 0.549,-0.83 0.549,-1.33v-12.75c0,-0.3 -0.119,-0.58 -0.33,-0.8c-0.21,-0.21 -0.497,-0.33 -0.795,-0.33zM10.125,7.845l-6.108,-5.59h12.216zM6.824,7.875l-4.574,4.19v-8.38zM8.489,9.405l0.876,0.8c0.207,0.19 0.478,0.3 0.76,0.3c0.282,0 0.553,-0.11 0.76,-0.3l0.876,-0.8l4.472,4.09h-12.216zM13.426,7.875l4.574,-4.19v8.38z" fill="black" fill-opacity="0.4"/></svg>