<svg viewBox="0 0 66.0936 18.4899" fill="none" xmlns="http://www.w3.org/2000/svg" xmlns:xlink="http://www.w3.org/1999/xlink" x="0" y="0"><g id="Frame 10_7">
<path id="Star 1_7" d="M9.245,0.0049l2.619,5.64l6.173,0.74l-4.554,4.24l1.196,6.1l-5.434,-3.02l-5.434,3.02l1.196,-6.1l-4.555,-4.24l6.174,-0.74z" fill="currentColor"/>
<path id="Star 2_7" d="M33.047,0.0049l2.619,5.64l6.173,0.74l-4.554,4.24l1.196,6.1l-5.434,-3.02l-5.434,3.02l1.196,-6.1l-4.555,-4.24l6.174,-0.74z" fill="currentColor"/>
<path id="Star 3_7" d="M56.849,0.0049l2.619,5.64l6.173,0.74l-4.554,4.24l1.196,6.1l-5.434,-3.02l-5.434,3.02l1.196,-6.1l-4.555,-4.24l6.173,-0.74z" fill="currentColor"/>
</g></svg>