<svg viewBox="0 0 80.1981 18.4899" fill="none" xmlns="http://www.w3.org/2000/svg" xmlns:xlink="http://www.w3.org/1999/xlink" x="0" y="0"><g id="Frame 10_2">
<path id="Star 1_2" d="M9.245,0.005l2.619,5.63l6.173,0.75l-4.554,4.24l1.196,6.1l-5.434,-3.02l-5.434,3.02l1.196,-6.1l-4.555,-4.24l6.174,-0.75z" fill="currentColor"/>
<path id="Star 2_2" d="M33.047,0.005l2.619,5.63l6.173,0.75l-4.554,4.24l1.196,6.1l-5.434,-3.02l-5.434,3.02l1.196,-6.1l-4.555,-4.24l6.174,-0.75z" fill="currentColor"/>
<path id="Star 3_2" d="M56.849,0.005l2.619,5.63l6.173,0.75l-4.554,4.24l1.196,6.1l-5.434,-3.02l-5.434,3.02l1.196,-6.1l-4.555,-4.24l6.173,-0.75z" fill="currentColor"/>
<path id="Star 5_2" d="M74.764,16.725l5.434,-3.02v-13.7l-2.619,5.63l-6.173,0.75l4.554,4.24z" fill="currentColor"/>
</g></svg>