<svg viewBox="0 0 20.2737 20.2746" fill="none" xmlns="http://www.w3.org/2000/svg" xmlns:xlink="http://www.w3.org/1999/xlink" x="0" y="0"><path id="Vector_4" d="M19.9399,18.348l-4.452,-4.4541c1.335,-1.7396 1.958,-3.9218 1.743,-6.1039c-0.215,-2.1822 -1.252,-4.2009 -2.9,-5.6467c-1.649,-1.4458 -3.786,-2.2104 -5.977,-2.1387c-2.192,0.0717 -4.274,0.9744 -5.824,2.5249c-1.551,1.5505 -2.454,3.6327 -2.525,5.8242c-0.072,2.1916 0.693,4.3284 2.138,5.9769c1.446,1.6486 3.465,2.6855 5.647,2.9003c2.182,0.2149 4.364,-0.4083 6.104,-1.7432l4.456,4.4568c0.105,0.1047 0.229,0.1877 0.366,0.2443c0.136,0.0567 0.283,0.0858 0.431,0.0858c0.148,0 0.294,-0.0291 0.431,-0.0858c0.137,-0.0566 0.261,-0.1396 0.366,-0.2443c0.104,-0.1046 0.187,-0.2289 0.244,-0.3656c0.057,-0.1367 0.086,-0.2833 0.086,-0.4313c0,-0.1479 -0.029,-0.2945 -0.086,-0.4312c-0.057,-0.1367 -0.14,-0.261 -0.244,-0.3656zM2.2689,8.6439c0,-1.2609 0.374,-2.4934 1.074,-3.5418c0.701,-1.0483 1.697,-1.8654 2.861,-2.3479c1.165,-0.4825 2.447,-0.6088 3.684,-0.3628c1.236,0.246 2.372,0.8531 3.264,1.7447c0.891,0.8916 1.499,2.0275 1.745,3.2641c0.245,1.2366 0.119,2.5184 -0.363,3.6833c-0.483,1.1649 -1.3,2.1605 -2.348,2.861c-1.049,0.7005 -2.281,1.0744 -3.542,1.0744c-1.69,-0.0017 -3.311,-0.6739 -4.506,-1.8691c-1.195,-1.1952 -1.867,-2.8157 -1.869,-4.5059z" fill="black" fill-opacity="0.4"/></svg>