<svg viewBox="0 0 138.842 22.579" fill="none" xmlns="http://www.w3.org/2000/svg" xmlns:xlink="http://www.w3.org/1999/xlink" x="0" y="0"><g id="Frame 10_9">
<path id="Star 1_9" d="M11.289,0l3.199,6.89l7.538,0.91l-5.561,5.17l1.46,7.45l-6.636,-3.69l-6.635,3.69l1.46,-7.45l-5.561,-5.17l7.538,-0.91z" fill="currentColor"/>
<path id="Star 2_9" d="M40.355,0l3.199,6.89l7.538,0.91l-5.562,5.17l1.461,7.45l-6.636,-3.69l-6.636,3.69l1.461,-7.45l-5.562,-5.17l7.539,-0.91z" fill="currentColor"/>
<path id="Star 3_9" d="M69.421,0l3.198,6.89l7.539,0.91l-5.562,5.17l1.461,7.45l-6.636,-3.69l-6.636,3.69l1.461,-7.45l-5.562,-5.17l7.539,-0.91z" fill="currentColor"/>
<path id="Star 4_7" d="M98.487,0l3.198,6.89l7.539,0.91l-5.562,5.17l1.461,7.45l-6.636,-3.69l-6.636,3.69l1.461,-7.45l-5.562,-5.17l7.538,-0.91z" fill="currentColor"/>
<path id="Star 5_7" d="M127.553,0l3.198,6.89l7.538,0.91l-5.561,5.17l1.46,7.45l-6.635,-3.69l-6.636,3.69l1.46,-7.45l-5.561,-5.17l7.538,-0.91z" fill="currentColor"/>
</g></svg>