<svg viewBox="0 0 20.25 20.25" fill="none" xmlns="http://www.w3.org/2000/svg" xmlns:xlink="http://www.w3.org/1999/xlink" x="0" y="0"><path id="Vector_6" d="M10.125,0c-2,0 -3.96,0.5938 -5.63,1.7064c-1.66,1.1125 -2.96,2.6938 -3.72,4.5439c-0.77,1.8501 -0.97,3.8859 -0.58,5.85c0.39,1.964 1.35,3.7682 2.77,5.1842c1.42,1.416 3.22,2.3803 5.18,2.771c1.97,0.3906 4,0.1901 5.85,-0.5762c1.85,-0.7664 3.44,-2.0641 4.55,-3.7292c1.11,-1.665 1.71,-3.6226 1.71,-5.6251c-0.01,-2.6844 -1.08,-5.258 -2.97,-7.1562c-1.9,-1.8981 -4.48,-2.9658 -7.16,-2.9688zM5.585,16.5534c0.52,-0.7141 1.21,-1.2949 1.99,-1.6953c0.79,-0.4004 1.67,-0.6091 2.55,-0.6091c0.88,0 1.76,0.2087 2.55,0.6091c0.78,0.4004 1.47,0.9812 1.99,1.6953c-1.33,0.9411 -2.91,1.4466 -4.54,1.4466c-1.63,0 -3.21,-0.5055 -4.54,-1.4466zM7.505,9.375c0,-0.5192 0.15,-1.0267 0.44,-1.4584c0.29,-0.4317 0.7,-0.7681 1.18,-0.9668c0.48,-0.1987 1,-0.2506 1.51,-0.1494c0.51,0.1013 0.98,0.3513 1.35,0.7184c0.36,0.3672 0.61,0.8349 0.71,1.3441c0.11,0.5092 0.05,1.037 -0.14,1.5166c-0.2,0.4797 -0.54,0.8897 -0.97,1.1781c-0.43,0.2884 -0.94,0.4424 -1.46,0.4424c-0.7,0 -1.36,-0.2766 -1.86,-0.7688c-0.49,-0.4923 -0.76,-1.16 -0.76,-1.8562zM16.315,14.9944c-0.73,-0.9275 -1.66,-1.678 -2.72,-2.1957c0.67,-0.6841 1.13,-1.5529 1.32,-2.4968c0.18,-0.944 0.08,-1.9211 -0.29,-2.8083c-0.37,-0.8872 -1,-1.645 -1.8,-2.1779c-0.8,-0.533 -1.74,-0.8174 -2.7,-0.8174c-0.96,0 -1.9,0.2844 -2.7,0.8174c-0.8,0.5329 -1.43,1.2907 -1.8,2.1779c-0.37,0.8872 -0.47,1.8643 -0.29,2.8083c0.19,0.9439 0.65,1.8127 1.32,2.4968c-1.06,0.5177 -1.99,1.2682 -2.72,2.1957c-0.91,-1.1611 -1.48,-2.5565 -1.64,-4.0267c-0.16,-1.4702 0.09,-2.9556 0.74,-4.2863c0.64,-1.3306 1.65,-2.4527 2.9,-3.2379c1.26,-0.7851 2.71,-1.2015 4.19,-1.2015c1.47,0 2.92,0.4164 4.18,1.2015c1.25,0.7852 2.26,1.9073 2.9,3.2379c0.65,1.3307 0.9,2.8161 0.74,4.2863c-0.16,1.4702 -0.73,2.8656 -1.64,4.0267z" fill="black"/></svg>