<svg viewBox="0 0 19.5 19.5" fill="none" xmlns="http://www.w3.org/2000/svg" xmlns:xlink="http://www.w3.org/1999/xlink" x="0" y="0"><path id="Vector_12" d="M9.75,0.0009c-1.928,0 -3.813,0.57 -5.417,1.64c-1.603,1.07 -2.853,2.6 -3.591,4.38c-0.738,1.78 -0.931,3.74 -0.555,5.63c0.377,1.89 1.305,3.63 2.669,4.99c1.363,1.37 3.101,2.3 4.992,2.67c1.891,0.38 3.852,0.18 5.633,-0.55c1.782,-0.74 3.304,-1.99 4.376,-3.59c1.071,-1.61 1.643,-3.49 1.643,-5.42c-0.003,-2.59 -1.031,-5.06 -2.859,-6.89c-1.828,-1.83 -4.306,-2.86 -6.891,-2.86zM14.031,8.0309l-5.25,5.25c-0.07,0.07 -0.153,0.12 -0.244,0.16c-0.091,0.04 -0.188,0.06 -0.287,0.06c-0.099,0 -0.196,-0.02 -0.287,-0.06c-0.091,-0.04 -0.174,-0.09 -0.244,-0.16l-2.25,-2.25c-0.14,-0.14 -0.219,-0.33 -0.219,-0.53c0,-0.2 0.079,-0.39 0.219,-0.53c0.141,-0.14 0.332,-0.22 0.531,-0.22c0.199,0 0.39,0.08 0.531,0.22l1.719,1.72l4.719,-4.72c0.07,-0.07 0.153,-0.13 0.244,-0.16c0.091,-0.04 0.188,-0.06 0.287,-0.06c0.099,0 0.196,0.02 0.287,0.06c0.091,0.03 0.174,0.09 0.244,0.16c0.069,0.07 0.125,0.15 0.162,0.24c0.038,0.09 0.057,0.19 0.057,0.29c0,0.1 -0.019,0.2 -0.057,0.29c-0.037,0.09 -0.093,0.17 -0.162,0.24z" fill="currentColor"/></svg>