<svg viewBox="0 0 28 28" fill="none" xmlns="http://www.w3.org/2000/svg" xmlns:xlink="http://www.w3.org/1999/xlink" x="0" y="0"><g id="4">
<g id="BG_4">
<circle cx="14" cy="14" r="14" fill="white"/>
<circle cx="14" cy="14" r="13.5" stroke="black" stroke-opacity="0.2"/>
</g>
<g id="logo-github 1">
<g id="Group_7">
<path id="Vector_23" fill-rule="evenodd" clip-rule="evenodd" d="M14.607,7.23c-3.591,0 -6.48,2.89 -6.48,6.48c0,2.86 1.863,5.29 4.428,6.15c0.324,0.06 0.432,-0.13 0.432,-0.32c0,-0.16 0,-0.57 0,-1.11c-1.809,0.41 -2.187,-0.86 -2.187,-0.86c-0.297,-0.76 -0.729,-0.95 -0.729,-0.95c-0.594,-0.4 0.054,-0.4 0.054,-0.4c0.648,0.05 0.999,0.67 0.999,0.67c0.567,1 1.512,0.7 1.89,0.54c0.054,-0.43 0.216,-0.7 0.405,-0.86c-1.431,-0.16 -2.943,-0.73 -2.943,-3.21c0,-0.71 0.243,-1.3 0.675,-1.73c-0.054,-0.16 -0.297,-0.81 0.054,-1.73c0,0 0.54,-0.16 1.782,0.67c0.513,-0.13 1.08,-0.21 1.62,-0.21c0.54,0 1.107,0.08 1.62,0.21c1.242,-0.83 1.782,-0.67 1.782,-0.67c0.351,0.89 0.135,1.54 0.054,1.73c0.405,0.46 0.675,1.02 0.675,1.73c0,2.48 -1.512,3.02 -2.97,3.18c0.243,0.19 0.432,0.6 0.432,1.19c0,0.86 0,1.57 0,1.78c0,0.16 0.108,0.38 0.459,0.33c2.565,-0.84 4.428,-3.27 4.428,-6.13c0,-3.59 -2.889,-6.48 -6.48,-6.48z" fill="black"/>
</g>
</g>
</g></svg>