<svg viewBox="0 0 28 28" fill="none" xmlns="http://www.w3.org/2000/svg" xmlns:xlink="http://www.w3.org/1999/xlink" x="0" y="0"><g id="3">
<g id="BG_3">
<circle cx="14" cy="14" r="14" fill="white"/>
<circle cx="14" cy="14" r="13.5" stroke="black" stroke-opacity="0.2"/>
</g>
<g id="logo-instagram 1">
<g id="Group_6">
<path id="Vector_20" d="M14.001,8.45c1.808,0 2.023,0 2.737,0.04c0.43,0 0.855,0.08 1.258,0.23c0.292,0.11 0.558,0.29 0.779,0.51c0.222,0.22 0.394,0.48 0.507,0.78c0.149,0.4 0.228,0.82 0.233,1.25c0.033,0.72 0.04,0.93 0.04,2.74c0,1.81 -0.007,2.02 -0.04,2.74c-0.005,0.43 -0.084,0.85 -0.233,1.26c-0.113,0.29 -0.285,0.55 -0.507,0.78c-0.221,0.22 -0.487,0.39 -0.779,0.5c-0.403,0.15 -0.828,0.23 -1.258,0.24c-0.714,0.03 -0.928,0.03 -2.737,0.03c-1.809,0 -2.023,0 -2.738,-0.03c-0.429,-0.01 -0.855,-0.09 -1.258,-0.24c-0.292,-0.11 -0.557,-0.28 -0.779,-0.5c-0.221,-0.23 -0.394,-0.49 -0.507,-0.78c-0.149,-0.41 -0.228,-0.83 -0.233,-1.26c-0.032,-0.72 -0.039,-0.93 -0.039,-2.74c0,-1.81 0.007,-2.02 0.039,-2.74c0.005,-0.43 0.084,-0.85 0.233,-1.25c0.113,-0.3 0.286,-0.56 0.507,-0.78c0.222,-0.22 0.487,-0.4 0.779,-0.51c0.403,-0.15 0.829,-0.23 1.258,-0.23c0.715,-0.04 0.929,-0.04 2.738,-0.04zM14.001,7.23c-1.839,0 -2.071,0 -2.793,0.04c-0.562,0.01 -1.119,0.11 -1.645,0.31c-0.452,0.17 -0.861,0.44 -1.199,0.78c-0.345,0.34 -0.612,0.75 -0.783,1.2c-0.197,0.53 -0.303,1.09 -0.314,1.65c-0.033,0.72 -0.04,0.95 -0.04,2.79c0,1.84 0.007,2.07 0.04,2.79c0.011,0.57 0.118,1.12 0.315,1.65c0.17,0.45 0.437,0.86 0.782,1.2c0.338,0.34 0.747,0.61 1.199,0.78c0.527,0.2 1.083,0.3 1.645,0.31c0.723,0.04 0.954,0.05 2.793,0.05c1.84,0 2.071,-0.01 2.793,-0.05c0.563,-0.01 1.119,-0.11 1.645,-0.31c0.45,-0.17 0.859,-0.44 1.2,-0.78c0.341,-0.34 0.607,-0.75 0.781,-1.2c0.197,-0.53 0.304,-1.08 0.315,-1.65c0.032,-0.72 0.04,-0.95 0.04,-2.79c0,-1.84 -0.008,-2.07 -0.041,-2.79c-0.011,-0.56 -0.117,-1.12 -0.315,-1.65c-0.17,-0.45 -0.436,-0.86 -0.781,-1.2c-0.338,-0.34 -0.748,-0.61 -1.2,-0.78c-0.526,-0.2 -1.083,-0.3 -1.645,-0.31c-0.722,-0.04 -0.954,-0.04 -2.792,-0.04z" fill="black"/>
<path id="Vector_21" d="M14.002,10.52c-0.688,0 -1.36,0.21 -1.933,0.59c-0.572,0.38 -1.017,0.93 -1.281,1.56c-0.263,0.64 -0.332,1.34 -0.198,2.01c0.135,0.68 0.466,1.3 0.952,1.78c0.487,0.49 1.107,0.82 1.781,0.95c0.675,0.14 1.375,0.07 2.01,-0.19c0.636,-0.27 1.179,-0.71 1.562,-1.29c0.382,-0.57 0.586,-1.24 0.586,-1.93c0,-0.92 -0.367,-1.81 -1.019,-2.46c-0.652,-0.65 -1.537,-1.02 -2.46,-1.02zM14.002,16.26c-0.446,0 -0.883,-0.13 -1.254,-0.38c-0.372,-0.25 -0.661,-0.6 -0.832,-1.01c-0.171,-0.42 -0.216,-0.87 -0.129,-1.31c0.088,-0.44 0.303,-0.84 0.618,-1.15c0.316,-0.32 0.719,-0.54 1.157,-0.62c0.438,-0.09 0.892,-0.04 1.304,0.13c0.413,0.17 0.766,0.46 1.014,0.83c0.248,0.37 0.38,0.81 0.38,1.25c0,0.6 -0.238,1.18 -0.661,1.6c-0.424,0.42 -0.998,0.66 -1.597,0.66z" fill="black"/>
<path id="Vector_22" d="M17.618,11.2c0.449,0 0.812,-0.37 0.812,-0.81c0,-0.45 -0.363,-0.82 -0.812,-0.82c-0.449,0 -0.813,0.37 -0.813,0.82c0,0.44 0.364,0.81 0.813,0.81z" fill="black"/>
</g>
</g>
</g></svg>