<svg viewBox="0 0 28 28" fill="none" xmlns="http://www.w3.org/2000/svg" xmlns:xlink="http://www.w3.org/1999/xlink" x="0" y="0"><g id="1">
<g id="BG">
<circle cx="14" cy="14" r="14" fill="white"/>
<circle cx="14" cy="14" r="13.5" stroke="black" stroke-opacity="0.2"/>
</g>
<g id="logo-twitter 2">
<g id="Group_4">
<path id="Vector_18" d="M20.207,10.98c-0.419,0.19 -0.861,0.31 -1.327,0.38c0.466,-0.28 0.838,-0.73 1.001,-1.26c-0.442,0.25 -0.931,0.44 -1.466,0.56c-0.419,-0.45 -1.025,-0.72 -1.676,-0.72c-1.258,0 -2.282,1.02 -2.282,2.28c0,0.18 0.023,0.35 0.07,0.51c-1.886,-0.09 -3.585,-1 -4.726,-2.4c-0.186,0.35 -0.302,0.72 -0.302,1.14c0,0.79 0.396,1.49 1.024,1.91c-0.372,-0.02 -0.722,-0.12 -1.047,-0.28v0.02c0,1.12 0.791,2.05 1.839,2.26c-0.187,0.05 -0.396,0.07 -0.606,0.07c-0.139,0 -0.302,-0.02 -0.442,-0.04c0.303,0.9 1.141,1.58 2.142,1.58c-0.792,0.6 -1.77,0.98 -2.84,0.98c-0.187,0 -0.373,0 -0.536,-0.03c1.024,0.66 2.212,1.03 3.515,1.03c4.214,0 6.518,-3.49 6.518,-6.52c0,-0.09 0,-0.21 0,-0.3c0.443,-0.31 0.839,-0.7 1.141,-1.17z" fill="black"/>
</g>
</g>
</g></svg>