<svg viewBox="0 0 281.0714 30.0304" fill="none" xmlns="http://www.w3.org/2000/svg" xmlns:xlink="http://www.w3.org/1999/xlink" x="0" y="0"><defs><filter id="filter2_dd_20_2" x="-9.190000000000055" y="-4.710000000000036" width="64.9911" height="48.4071" filterUnits="userSpaceOnUse" color-interpolation-filters="sRGB">
<feFlood flood-opacity="0" result="BackgroundImageFix"/>
<feColorMatrix in="SourceAlpha" type="matrix" values="0 0 0 0 0 0 0 0 0 0 0 0 0 0 0 0 0 0 127 0" result="hardAlpha"/>
<feOffset dy="0.448214"/>
<feGaussianBlur stdDeviation="2.24107"/>
<feColorMatrix type="matrix" values="0 0 0 0 0.717647 0 0 0 0 0.717647 0 0 0 0 0.717647 0 0 0 0.08 0"/>
<feBlend mode="normal" in2="BackgroundImageFix" result="effect1_dropShadow_20_2"/>
<feColorMatrix in="SourceAlpha" type="matrix" values="0 0 0 0 0 0 0 0 0 0 0 0 0 0 0 0 0 0 127 0" result="hardAlpha"/>
<feOffset dy="4.48214"/>
<feGaussianBlur stdDeviation="4.48214"/>
<feColorMatrix type="matrix" values="0 0 0 0 0.717647 0 0 0 0 0.717647 0 0 0 0 0.717647 0 0 0 0.08 0"/>
<feBlend mode="normal" in2="effect1_dropShadow_20_2" result="effect2_dropShadow_20_2"/>
<feBlend mode="normal" in="SourceGraphic" in2="effect2_dropShadow_20_2" result="shape"/>
</filter><filter id="filter3_dd_20_2" x="49.430000000000064" y="-4.710000000000036" width="64.9911" height="48.4071" filterUnits="userSpaceOnUse" color-interpolation-filters="sRGB">
<feFlood flood-opacity="0" result="BackgroundImageFix"/>
<feColorMatrix in="SourceAlpha" type="matrix" values="0 0 0 0 0 0 0 0 0 0 0 0 0 0 0 0 0 0 127 0" result="hardAlpha"/>
<feOffset dy="0.448214"/>
<feGaussianBlur stdDeviation="2.24107"/>
<feColorMatrix type="matrix" values="0 0 0 0 0.717647 0 0 0 0 0.717647 0 0 0 0 0.717647 0 0 0 0.08 0"/>
<feBlend mode="normal" in2="BackgroundImageFix" result="effect1_dropShadow_20_2"/>
<feColorMatrix in="SourceAlpha" type="matrix" values="0 0 0 0 0 0 0 0 0 0 0 0 0 0 0 0 0 0 127 0" result="hardAlpha"/>
<feOffset dy="4.48214"/>
<feGaussianBlur stdDeviation="4.48214"/>
<feColorMatrix type="matrix" values="0 0 0 0 0.717647 0 0 0 0 0.717647 0 0 0 0 0.717647 0 0 0 0.08 0"/>
<feBlend mode="normal" in2="effect1_dropShadow_20_2" result="effect2_dropShadow_20_2"/>
<feBlend mode="normal" in="SourceGraphic" in2="effect2_dropShadow_20_2" result="shape"/>
</filter><filter id="filter4_dd_20_2" x="108.03999999999996" y="-4.710000000000036" width="64.9911" height="48.4071" filterUnits="userSpaceOnUse" color-interpolation-filters="sRGB">
<feFlood flood-opacity="0" result="BackgroundImageFix"/>
<feColorMatrix in="SourceAlpha" type="matrix" values="0 0 0 0 0 0 0 0 0 0 0 0 0 0 0 0 0 0 127 0" result="hardAlpha"/>
<feOffset dy="0.448214"/>
<feGaussianBlur stdDeviation="2.24107"/>
<feColorMatrix type="matrix" values="0 0 0 0 0.717647 0 0 0 0 0.717647 0 0 0 0 0.717647 0 0 0 0.08 0"/>
<feBlend mode="normal" in2="BackgroundImageFix" result="effect1_dropShadow_20_2"/>
<feColorMatrix in="SourceAlpha" type="matrix" values="0 0 0 0 0 0 0 0 0 0 0 0 0 0 0 0 0 0 127 0" result="hardAlpha"/>
<feOffset dy="4.48214"/>
<feGaussianBlur stdDeviation="4.48214"/>
<feColorMatrix type="matrix" values="0 0 0 0 0.717647 0 0 0 0 0.717647 0 0 0 0 0.717647 0 0 0 0.08 0"/>
<feBlend mode="normal" in2="effect1_dropShadow_20_2" result="effect2_dropShadow_20_2"/>
<feBlend mode="normal" in="SourceGraphic" in2="effect2_dropShadow_20_2" result="shape"/>
</filter><filter id="filter5_dd_20_2" x="166.6500000000001" y="-4.710000000000036" width="64.9911" height="48.4071" filterUnits="userSpaceOnUse" color-interpolation-filters="sRGB">
<feFlood flood-opacity="0" result="BackgroundImageFix"/>
<feColorMatrix in="SourceAlpha" type="matrix" values="0 0 0 0 0 0 0 0 0 0 0 0 0 0 0 0 0 0 127 0" result="hardAlpha"/>
<feOffset dy="0.448214"/>
<feGaussianBlur stdDeviation="2.24107"/>
<feColorMatrix type="matrix" values="0 0 0 0 0.717647 0 0 0 0 0.717647 0 0 0 0 0.717647 0 0 0 0.08 0"/>
<feBlend mode="normal" in2="BackgroundImageFix" result="effect1_dropShadow_20_2"/>
<feColorMatrix in="SourceAlpha" type="matrix" values="0 0 0 0 0 0 0 0 0 0 0 0 0 0 0 0 0 0 127 0" result="hardAlpha"/>
<feOffset dy="4.48214"/>
<feGaussianBlur stdDeviation="4.48214"/>
<feColorMatrix type="matrix" values="0 0 0 0 0.717647 0 0 0 0 0.717647 0 0 0 0 0.717647 0 0 0 0.08 0"/>
<feBlend mode="normal" in2="effect1_dropShadow_20_2" result="effect2_dropShadow_20_2"/>
<feBlend mode="normal" in="SourceGraphic" in2="effect2_dropShadow_20_2" result="shape"/>
</filter><filter id="filter6_dd_20_2" x="225.26999999999998" y="-4.710000000000036" width="64.9911" height="48.4071" filterUnits="userSpaceOnUse" color-interpolation-filters="sRGB">
<feFlood flood-opacity="0" result="BackgroundImageFix"/>
<feColorMatrix in="SourceAlpha" type="matrix" values="0 0 0 0 0 0 0 0 0 0 0 0 0 0 0 0 0 0 127 0" result="hardAlpha"/>
<feOffset dy="0.448214"/>
<feGaussianBlur stdDeviation="2.24107"/>
<feColorMatrix type="matrix" values="0 0 0 0 0.717647 0 0 0 0 0.717647 0 0 0 0 0.717647 0 0 0 0.08 0"/>
<feBlend mode="normal" in2="BackgroundImageFix" result="effect1_dropShadow_20_2"/>
<feColorMatrix in="SourceAlpha" type="matrix" values="0 0 0 0 0 0 0 0 0 0 0 0 0 0 0 0 0 0 127 0" result="hardAlpha"/>
<feOffset dy="4.48214"/>
<feGaussianBlur stdDeviation="4.48214"/>
<feColorMatrix type="matrix" values="0 0 0 0 0.717647 0 0 0 0 0.717647 0 0 0 0 0.717647 0 0 0 0.08 0"/>
<feBlend mode="normal" in2="effect1_dropShadow_20_2" result="effect2_dropShadow_20_2"/>
<feBlend mode="normal" in="SourceGraphic" in2="effect2_dropShadow_20_2" result="shape"/>
</filter></defs><g id="Frame 53">
<g id="Badge" filter="url(#filter2_dd_20_2)">
<rect x="0" y="0" width="46.6143" height="30.0304" rx="5.37857" fill="white"/>
<rect x="-0.10999999999989996" y="-0.10999999999967258" width="46.8384" height="30.2545" rx="5.49062" stroke="#D6DCE5" stroke-width="0.224107"/>
<path id="Visa" d="M23.02,10.12l-2.17,10.16h-2.63l2.17,-10.16zM34.08,16.68l1.39,-3.81l0.79,3.81zM37.02,20.28h2.43l-2.12,-10.16h-2.25c-0.5,0 -0.93,0.29 -1.12,0.75l-3.94,9.41h2.76l0.55,-1.51h3.37zM30.16,16.97c0.01,-2.69 -3.71,-2.83 -3.69,-4.03c0.01,-0.37 0.36,-0.75 1.12,-0.85c0.37,-0.05 1.41,-0.09 2.59,0.45l0.46,-2.15c-0.63,-0.23 -1.45,-0.45 -2.46,-0.45c-2.6,0 -4.43,1.38 -4.44,3.36c-0.02,1.46 1.3,2.27 2.3,2.76c1.02,0.5 1.37,0.82 1.36,1.26c0,0.69 -0.81,0.99 -1.57,1c-1.32,0.02 -2.09,-0.36 -2.7,-0.64l-0.48,2.22c0.62,0.29 1.75,0.53 2.93,0.54c2.76,0 4.57,-1.36 4.58,-3.47zM19.27,10.12l-4.26,10.16h-2.78l-2.1,-8.11c-0.13,-0.5 -0.24,-0.68 -0.63,-0.89c-0.63,-0.34 -1.67,-0.66 -2.59,-0.86l0.06,-0.3h4.48c0.57,0 1.08,0.38 1.21,1.04l1.11,5.88l2.73,-6.92z" fill="#1434CB"/>
</g>
<g id="Badge_2" filter="url(#filter3_dd_20_2)">
<rect x="58.6099999999999" y="0" width="46.6143" height="30.0304" rx="5.37857" fill="white"/>
<rect x="58.5" y="-0.10999999999967258" width="46.8384" height="30.2545" rx="5.49062" stroke="#D6DCE5" stroke-width="0.224107"/>
<g id="Mastercard">
<path d="M85.27,8.85h-6.86v12.33h6.86z" fill="#FF5F00"/>
<path d="M78.84,15.02c0,-1.19 0.27,-2.37 0.79,-3.43c0.52,-1.07 1.27,-2.01 2.21,-2.74c-1.16,-0.91 -2.55,-1.48 -4.01,-1.63c-1.47,-0.16 -2.94,0.1 -4.27,0.74c-1.32,0.64 -2.44,1.65 -3.22,2.89c-0.78,1.25 -1.19,2.69 -1.19,4.17c0,1.47 0.41,2.91 1.19,4.16c0.78,1.24 1.9,2.25 3.22,2.89c1.33,0.64 2.8,0.9 4.27,0.74c1.46,-0.15 2.85,-0.72 4.01,-1.63c-0.94,-0.73 -1.69,-1.67 -2.21,-2.74c-0.52,-1.06 -0.79,-2.24 -0.79,-3.42z" fill="#EB001B"/>
<path d="M94.53,15.02c0,1.47 -0.42,2.91 -1.2,4.16c-0.78,1.24 -1.89,2.25 -3.22,2.89c-1.32,0.64 -2.8,0.9 -4.26,0.74c-1.46,-0.15 -2.85,-0.72 -4.01,-1.63c0.93,-0.73 1.69,-1.67 2.21,-2.74c0.51,-1.07 0.78,-2.24 0.78,-3.42c0,-1.19 -0.27,-2.36 -0.78,-3.43c-0.52,-1.07 -1.28,-2.01 -2.21,-2.74c1.16,-0.91 2.55,-1.48 4.01,-1.63c1.46,-0.16 2.94,0.1 4.26,0.74c1.33,0.64 2.44,1.65 3.22,2.89c0.78,1.25 1.2,2.69 1.2,4.17z" fill="#F79E1B"/>
<path d="M93.78,19.88v-0.26h0.1v-0.05h-0.26v0.05h0.1v0.26zM94.28,19.88v-0.31h-0.08l-0.09,0.21l-0.09,-0.21h-0.08v0.31h0.06v-0.23l0.08,0.19h0.06l0.09,-0.19v0.23z" fill="#F79E1B"/>
</g>
</g>
<g id="Badge_3" filter="url(#filter4_dd_20_2)">
<rect x="117.23000000000002" y="0" width="46.6143" height="30.0304" rx="5.37857" fill="white"/>
<rect x="117.11999999999989" y="-0.10999999999967258" width="46.8384" height="30.2545" rx="5.49062" stroke="#D6DCE5" stroke-width="0.224107"/>
<g id="Paypal">
<path fill-rule="evenodd" clip-rule="evenodd" d="M127.43,10.65h-2.69c-0.19,0 -0.34,0.13 -0.37,0.31l-1.09,6.89c-0.02,0.14 0.09,0.26 0.22,0.26h1.29c0.18,0 0.34,-0.13 0.37,-0.32l0.29,-1.85c0.03,-0.19 0.18,-0.32 0.37,-0.32h0.85c1.77,0 2.79,-0.86 3.06,-2.55c0.12,-0.75 0,-1.33 -0.35,-1.74c-0.38,-0.45 -1.05,-0.68 -1.95,-0.68zM127.74,13.16c-0.15,0.97 -0.89,0.97 -1.6,0.97h-0.41l0.29,-1.8c0.02,-0.11 0.11,-0.19 0.22,-0.19h0.19c0.48,0 0.94,0 1.18,0.27c0.14,0.17 0.18,0.41 0.13,0.75zM135.46,13.13h-1.29c-0.11,0 -0.2,0.08 -0.22,0.19l-0.06,0.36l-0.09,-0.13c-0.27,-0.4 -0.9,-0.54 -1.52,-0.54c-1.42,0 -2.63,1.08 -2.87,2.59c-0.12,0.75 0.05,1.47 0.48,1.98c0.39,0.46 0.95,0.65 1.62,0.65c1.15,0 1.78,-0.74 1.78,-0.74l-0.05,0.36c-0.03,0.14 0.08,0.26 0.22,0.26h1.16c0.18,0 0.33,-0.13 0.36,-0.32l0.7,-4.4c0.02,-0.14 -0.08,-0.26 -0.22,-0.26zM133.67,15.64c-0.13,0.73 -0.71,1.23 -1.46,1.23c-0.37,0 -0.67,-0.12 -0.86,-0.35c-0.19,-0.23 -0.26,-0.55 -0.2,-0.91c0.11,-0.72 0.71,-1.23 1.44,-1.23c0.36,0 0.66,0.12 0.86,0.35c0.19,0.23 0.27,0.55 0.22,0.91zM141.02,13.13h1.29c0.18,0 0.29,0.2 0.19,0.35l-4.3,6.21c-0.07,0.1 -0.19,0.16 -0.31,0.16h-1.29c-0.18,0 -0.29,-0.2 -0.19,-0.35l1.34,-1.89l-1.42,-4.18c-0.05,-0.15 0.06,-0.3 0.21,-0.3h1.27c0.17,0 0.31,0.11 0.36,0.27l0.76,2.52l1.78,-2.62c0.07,-0.11 0.19,-0.17 0.31,-0.17z" fill="#253B80"/>
<path fill-rule="evenodd" clip-rule="evenodd" d="M155.04,17.85l1.11,-7.02c0.01,-0.1 0.11,-0.18 0.22,-0.18h1.24c0.14,0 0.24,0.12 0.22,0.25l-1.09,6.89c-0.03,0.19 -0.18,0.32 -0.37,0.32h-1.11c-0.13,0 -0.24,-0.12 -0.22,-0.26zM146.6,10.65h-2.69c-0.19,0 -0.34,0.13 -0.37,0.31l-1.09,6.89c-0.02,0.14 0.09,0.26 0.22,0.26h1.38c0.13,0 0.24,-0.09 0.26,-0.22l0.31,-1.95c0.03,-0.19 0.18,-0.32 0.37,-0.32h0.85c1.77,0 2.79,-0.86 3.06,-2.55c0.12,-0.75 0,-1.33 -0.35,-1.74c-0.38,-0.45 -1.05,-0.68 -1.95,-0.68zM146.91,13.16c-0.15,0.97 -0.89,0.97 -1.6,0.97h-0.41l0.29,-1.8c0.02,-0.11 0.11,-0.19 0.22,-0.19h0.19c0.48,0 0.94,0 1.18,0.27c0.14,0.17 0.18,0.41 0.13,0.75zM154.63,13.13h-1.29c-0.11,0 -0.2,0.08 -0.22,0.19l-0.06,0.36l-0.09,-0.13c-0.27,-0.4 -0.9,-0.54 -1.52,-0.54c-1.42,0 -2.63,1.08 -2.87,2.59c-0.12,0.75 0.05,1.47 0.48,1.97c0.39,0.47 0.95,0.66 1.62,0.66c1.15,0 1.78,-0.74 1.78,-0.74l-0.05,0.36c-0.03,0.14 0.08,0.26 0.22,0.26h1.16c0.18,0 0.34,-0.13 0.36,-0.32l0.7,-4.4c0.02,-0.14 -0.08,-0.26 -0.22,-0.26zM152.83,15.64c-0.12,0.73 -0.7,1.22 -1.45,1.22c-0.37,0 -0.67,-0.12 -0.86,-0.34c-0.19,-0.23 -0.26,-0.55 -0.2,-0.91c0.11,-0.73 0.71,-1.24 1.44,-1.24c0.36,0 0.66,0.13 0.86,0.36c0.19,0.23 0.27,0.55 0.21,0.91z" fill="#179BD7"/>
</g>
</g>
<g id="Badge_4" filter="url(#filter5_dd_20_2)">
<rect x="175.83999999999992" y="0" width="46.6143" height="30.0304" rx="5.37857" fill="white"/>
<rect x="175.73000000000002" y="-0.10999999999967258" width="46.8384" height="30.2545" rx="5.49062" stroke="#D6DCE5" stroke-width="0.224107"/>
<g id=" Pay">
<path d="M190.92,11.08c0.31,-0.39 0.52,-0.91 0.47,-1.44c-0.46,0.02 -1.01,0.3 -1.34,0.69c-0.28,0.33 -0.54,0.87 -0.47,1.39c0.51,0.04 1.02,-0.26 1.34,-0.64z" fill="#000008"/>
<path d="M191.38,11.82c-0.74,-0.05 -1.37,0.42 -1.73,0.42c-0.35,0 -0.89,-0.4 -1.48,-0.39c-0.77,0.01 -1.47,0.44 -1.86,1.13c-0.8,1.37 -0.21,3.41 0.56,4.53c0.38,0.55 0.83,1.16 1.43,1.14c0.57,-0.02 0.79,-0.36 1.47,-0.36c0.69,0 0.89,0.36 1.49,0.35c0.62,-0.01 1.01,-0.55 1.38,-1.11c0.44,-0.63 0.61,-1.24 0.62,-1.27c-0.01,-0.01 -1.19,-0.47 -1.2,-1.83c-0.01,-1.14 0.93,-1.68 0.97,-1.72c-0.53,-0.78 -1.36,-0.87 -1.65,-0.89z" fill="#000008"/>
<path d="M197.84,10.27c1.62,0 2.74,1.11 2.74,2.73c0,1.63 -1.15,2.74 -2.78,2.74h-1.78v2.84h-1.29v-8.31zM196.02,14.66h1.48c1.12,0 1.76,-0.6 1.76,-1.65c0,-1.05 -0.64,-1.65 -1.76,-1.65h-1.48z" fill="#000008"/>
<path d="M200.92,16.86c0,-1.06 0.81,-1.71 2.25,-1.79l1.66,-0.1v-0.47c0,-0.67 -0.46,-1.07 -1.22,-1.07c-0.72,0 -1.17,0.34 -1.28,0.88h-1.17c0.07,-1.09 1,-1.9 2.5,-1.9c1.47,0 2.41,0.78 2.41,2v4.17h-1.2v-0.99h-0.02c-0.36,0.67 -1.12,1.1 -1.92,1.1c-1.18,0 -2.01,-0.74 -2.01,-1.83zM204.83,16.31v-0.47l-1.49,0.09c-0.75,0.05 -1.17,0.38 -1.17,0.9c0,0.53 0.44,0.87 1.11,0.87c0.87,0 1.55,-0.6 1.55,-1.39z" fill="#000008"/>
<path d="M207.19,20.81v-1c0.09,0.02 0.3,0.02 0.41,0.02c0.57,0 0.88,-0.24 1.07,-0.87c0,-0.01 0.11,-0.36 0.11,-0.37l-2.19,-6.07h1.35l1.53,4.93h0.03l1.53,-4.93h1.31l-2.27,6.38c-0.52,1.47 -1.12,1.94 -2.37,1.94c-0.1,0 -0.42,-0.01 -0.51,-0.03z" fill="#000008"/>
</g>
</g>
<g id="Badge_5" filter="url(#filter6_dd_20_2)">
<rect x="234.46000000000004" y="0" width="46.6143" height="30.0304" rx="5.37857" fill="white"/>
<rect x="234.3499999999999" y="-0.10999999999967258" width="46.8384" height="30.2545" rx="5.49062" stroke="#D6DCE5" stroke-width="0.224107"/>
<g id="G Pay">
<path d="M256.75,18.61h-1.05v-8.15h2.78c0.71,0 1.31,0.23 1.8,0.7c0.5,0.47 0.75,1.04 0.75,1.72c0,0.69 -0.25,1.27 -0.75,1.73c-0.49,0.47 -1.09,0.7 -1.8,0.7h-1.73zM256.75,11.46v2.85h1.75c0.42,0 0.77,-0.15 1.04,-0.42c0.28,-0.28 0.42,-0.62 0.42,-1c0,-0.38 -0.14,-0.71 -0.42,-0.99c-0.27,-0.29 -0.62,-0.43 -1.04,-0.43h-1.75z" fill="#3C4043"/>
<path d="M263.77,12.85c0.78,0 1.39,0.21 1.84,0.62c0.45,0.42 0.67,0.98 0.67,1.7v3.44h-1v-0.77h-0.04c-0.43,0.64 -1.01,0.95 -1.73,0.95c-0.62,0 -1.13,-0.18 -1.55,-0.54c-0.41,-0.37 -0.62,-0.82 -0.62,-1.37c0,-0.58 0.22,-1.03 0.65,-1.37c0.44,-0.35 1.02,-0.52 1.75,-0.52c0.62,0 1.14,0.12 1.53,0.35v-0.24c0,-0.37 -0.14,-0.67 -0.43,-0.93c-0.29,-0.26 -0.62,-0.38 -1.01,-0.38c-0.59,0 -1.05,0.24 -1.39,0.74l-0.92,-0.58c0.51,-0.74 1.26,-1.1 2.25,-1.1zM262.42,16.9c0,0.27 0.11,0.5 0.35,0.68c0.23,0.18 0.5,0.28 0.81,0.28c0.44,0 0.84,-0.17 1.18,-0.5c0.35,-0.32 0.52,-0.71 0.52,-1.15c-0.33,-0.26 -0.78,-0.39 -1.36,-0.39c-0.43,0 -0.79,0.11 -1.07,0.31c-0.29,0.21 -0.43,0.47 -0.43,0.77z" fill="#3C4043"/>
<path d="M271.98,13.03l-3.49,8.04h-1.09l1.3,-2.82l-2.3,-5.22h1.14l1.66,4.01h0.02l1.62,-4.01z" fill="#3C4043"/>
<path d="M252.58,14.64c0,-0.34 -0.03,-0.66 -0.09,-0.98h-4.39v1.8h2.53c-0.1,0.6 -0.43,1.11 -0.94,1.45v1.17h1.51c0.88,-0.81 1.38,-2.01 1.38,-3.44z" fill="#4285F4"/>
<path d="M249.69,16.91c-0.42,0.29 -0.96,0.45 -1.59,0.45c-1.22,0 -2.26,-0.82 -2.63,-1.93h-1.55v1.21c0.77,1.53 2.35,2.57 4.18,2.57c1.26,0 2.32,-0.41 3.1,-1.13z" fill="#34A853"/>
<path d="M245.33,14.54c0,-0.31 0.05,-0.61 0.14,-0.9v-1.2h-1.55c-0.32,0.63 -0.5,1.34 -0.5,2.1c0,0.75 0.18,1.47 0.5,2.1l1.55,-1.21c-0.09,-0.28 -0.14,-0.58 -0.14,-0.89z" fill="#FABB05"/>
<path d="M248.1,11.71c0.69,0 1.31,0.24 1.79,0.7l1.34,-1.33c-0.81,-0.76 -1.87,-1.22 -3.13,-1.22c-1.83,0 -3.41,1.05 -4.18,2.58l1.55,1.2c0.37,-1.11 1.41,-1.93 2.63,-1.93z" fill="#E94235"/>
</g>
</g>
</g></svg>