<svg viewBox="0 0 206.7879 33.3481" fill="none" xmlns="http://www.w3.org/2000/svg" xmlns:xlink="http://www.w3.org/1999/xlink" x="0" y="0"><path id="Vector_11" fill-rule="evenodd" clip-rule="evenodd" d="M16.6483,30.452c-7.24,0 -13.42,-6.565 -13.42,-13.727c0,-7.134 6.05,-13.83 13.37,-13.83c4.81,0 8.27,2.326 11.09,5.972h3.54c-1.06,-1.914 -2.2,-3.671 -3.93,-5.042c-2.97,-2.404 -6.82,-3.825 -10.65,-3.825c-9.18,0 -16.65,7.575 -16.65,16.7c0,9.151 7.58,16.648 16.7,16.648c3.72,0 7.37,-1.369 10.29,-3.671c1.84,-1.473 3.13,-3.386 4.37,-5.351h-3.54c-2.79,3.645 -6.36,6.126 -11.17,6.126zM53.3583,13.003c-2.22,-2.87 -5.25,-4.679 -9,-4.679c-6.72,0 -12.25,5.456 -12.25,12.177c0,6.72 5.56,12.227 12.25,12.227c3.91,0 6.62,-1.629 9,-4.628v4.084h2.92v-23.292h-2.92zM44.2083,30.039c-5.15,0 -9.21,-4.472 -9.21,-9.512c0,-5.016 4.04,-9.514 9.21,-9.514c5.14,0 9.15,4.499 9.15,9.514c0,5.04 -4.03,9.512 -9.15,9.512zM59.8183,32.184h3.13v-31.513h-3.13zM74.7583,28.487l-7.91,-19.595h-3.1l9.49,23.292h3.15l9.47,-23.292h-3.06zM87.1483,32.184h3.13v-23.292h-3.13zM87.1483,5.893h3.13v-5.222h-3.13zM103.7383,8.323c-2.94,0 -5.04,1.552 -6.98,3.62v-3.051h-2.89v23.292h3.07v-14.193c-0.02,-3.748 3.08,-6.979 6.86,-6.979c4.72,0 7.1,4.111 7.1,8.351v12.822h2.9v-12.822c0,-6.05 -3.54,-11.04 -10.06,-11.04zM142.8283,0.671l-14.22,18.071v-18.071h-3.07v31.513h3.07v-8.66l4.04,-5.015l10.26,13.675h3.9l-12.2,-16.157l12.2,-15.356zM147.9483,32.184h3.05v-31.513h-3.05zM176.2583,14.76c-2.12,-3.956 -6.36,-6.437 -10.84,-6.437c-6.66,0 -12.3,5.559 -12.3,12.228c0,6.72 5.69,12.176 12.36,12.176c3.18,0 6.31,-1.267 8.61,-3.464c1.39,-1.319 2.22,-2.973 2.97,-4.705h-3.28c-1.66,3.232 -4.58,5.48 -8.36,5.48c-2.3,0 -4.54,-0.931 -6.25,-2.508c-1.76,-1.602 -2.53,-3.568 -2.87,-5.894h21.48c0,-2.429 -0.33,-4.756 -1.52,-6.876zM156.3983,18.948c0.94,-4.368 4.37,-7.936 9.08,-7.936c3.95,0 8.19,2.431 9.12,7.936zM180.0583,32.184h3.07v-23.292h-3.07zM180.0583,5.997h3.07v-5.326h-3.07zM196.6583,8.323c-3,0 -5.1,1.552 -7.06,3.62v-3.051h-2.95v23.292h3.1v-14.193c-0.02,-3.773 3.16,-6.979 6.96,-6.979c4.7,0 7.18,4.111 7.18,8.351v12.822h2.9v-12.822c0,-6.05 -3.59,-11.04 -10.13,-11.04z" fill="currentColor"/></svg>