<svg viewBox="0 0 156 32.2854" fill="none" xmlns="http://www.w3.org/2000/svg" xmlns:xlink="http://www.w3.org/1999/xlink" x="0" y="0"><path id="Vector_9" d="M141.3123,9.4357l-0.292,0.093c-1.133,-2.344 -2.753,-4.209 -4.858,-5.597c-2.073,-1.388 -4.68,-2.081 -7.822,-2.081c-1.749,0 -3.417,0.354 -5.004,1.063c-1.587,0.679 -2.98,1.65 -4.178,2.914c-1.166,1.234 -2.106,2.729 -2.818,4.487c-0.713,1.757 -1.069,3.7 -1.069,5.828c0,2.127 0.356,4.07 1.069,5.828c0.712,1.757 1.652,3.268 2.818,4.532c1.198,1.234 2.591,2.19 4.178,2.868c1.587,0.678 3.255,1.017 5.004,1.017c3.109,0 5.636,-0.462 7.579,-1.387c1.976,-0.956 3.644,-2.405 5.004,-4.348l0.292,0.092l-0.097,2.961c-0.745,0.74 -1.603,1.403 -2.575,1.988c-0.972,0.555 -2.024,1.033 -3.158,1.434c-1.101,0.37 -2.251,0.648 -3.449,0.833c-1.199,0.216 -2.397,0.324 -3.596,0.324c-2.494,0 -4.874,-0.386 -7.141,-1.156c-2.268,-0.771 -4.26,-1.851 -5.976,-3.238c-1.717,-1.419 -3.077,-3.114 -4.081,-5.088c-1.004,-2.004 -1.507,-4.224 -1.507,-6.66c0,-2.436 0.503,-4.641 1.507,-6.615c1.004,-2.004 2.364,-3.715 4.081,-5.134c1.716,-1.418 3.708,-2.497 5.976,-3.237c2.267,-0.771 4.647,-1.157 7.141,-1.157c1.199,0 2.397,0.093 3.596,0.278c1.198,0.185 2.348,0.478 3.449,0.879c1.134,0.37 2.186,0.848 3.158,1.434c0.972,0.555 1.83,1.202 2.575,1.942zM34.2523,18.2707c-0.356,0.154 -0.696,0.354 -1.021,0.601c-0.324,0.247 -0.486,0.586 -0.486,1.018v5.689c-1.554,2.128 -3.546,3.777 -5.976,4.949c-2.429,1.172 -5.117,1.758 -8.065,1.758c-2.493,0 -4.874,-0.386 -7.141,-1.157c-2.268,-0.771 -4.26,-1.85 -5.976,-3.237c-1.717,-1.419 -3.077,-3.115 -4.081,-5.088c-1.004,-2.004 -1.506,-4.225 -1.506,-6.661c0,-2.436 0.502,-4.64 1.506,-6.614c1.004,-2.004 2.364,-3.715 4.081,-5.134c1.716,-1.418 3.708,-2.497 5.976,-3.238c2.267,-0.77 4.648,-1.156 7.141,-1.156c1.199,0 2.397,0.093 3.596,0.278c1.198,0.185 2.348,0.478 3.449,0.878c1.134,0.37 2.186,0.848 3.158,1.434c0.972,0.555 1.83,1.203 2.575,1.943l0.195,4.903l-0.292,0.092c-1.133,-2.344 -2.753,-4.209 -4.858,-5.597c-2.073,-1.387 -4.68,-2.081 -7.822,-2.081c-1.749,0 -3.417,0.354 -5.004,1.064c-1.587,0.678 -2.98,1.649 -4.179,2.914c-1.166,1.233 -2.105,2.729 -2.817,4.486c-0.713,1.758 -1.069,3.7 -1.069,5.828c0,2.097 0.34,4.024 1.02,5.782c0.713,1.757 1.652,3.268 2.818,4.532c1.198,1.234 2.591,2.205 4.178,2.914c1.587,0.679 3.271,1.018 5.053,1.018c3.368,0 6.251,-0.617 8.648,-1.85v-8.65c0,-0.431 -0.178,-0.77 -0.534,-1.017c-0.324,-0.247 -0.648,-0.447 -0.972,-0.602l0.044,-0.231c0.162,0.029 0.454,0.059 0.875,0.093c0.421,0.028 0.858,0.058 1.312,0.092h4.178c0.389,-0.028 0.761,-0.059 1.118,-0.092c0.356,-0.029 0.631,-0.059 0.825,-0.093zM69.4423,0.9717c-0.324,0.154 -0.648,0.355 -0.972,0.602c-0.324,0.246 -0.502,0.709 -0.534,1.387c-0.03,0.74 -0.062,1.681 -0.097,2.822c0,1.11 -0.015,2.374 -0.044,3.792c0,1.419 -0.015,2.961 -0.045,4.626v5.18c-0.029,2.004 -0.289,3.716 -0.777,5.134c-0.486,1.418 -1.134,2.606 -1.944,3.562c-0.777,0.955 -1.652,1.711 -2.623,2.266c-0.94,0.555 -1.879,0.971 -2.818,1.249c-0.907,0.308 -1.765,0.493 -2.575,0.555c-0.81,0.092 -1.442,0.139 -1.895,0.139c-1.846,0 -3.628,-0.232 -5.344,-0.694c-1.717,-0.432 -3.223,-1.141 -4.519,-2.128c-1.295,-0.987 -2.332,-2.266 -3.109,-3.839c-0.777,-1.572 -1.166,-3.484 -1.166,-5.735v-5.227v-4.81c0,-1.48 -0.015,-2.806 -0.044,-3.978c0,-1.202 -0.015,-2.174 -0.045,-2.914c-0.029,-0.678 -0.207,-1.141 -0.534,-1.387c-0.324,-0.247 -0.648,-0.447 -0.972,-0.602l0.045,-0.231c0.162,0.028 0.421,0.059 0.778,0.092c0.388,0.028 0.777,0.059 1.166,0.092c0.421,0 0.826,0.015 1.214,0.043h1.749c0.389,-0.028 0.794,-0.043 1.215,-0.043c0.421,-0.028 0.81,-0.058 1.166,-0.092c0.388,-0.028 0.664,-0.059 0.825,-0.092l0.045,0.231c-0.356,0.154 -0.696,0.355 -1.02,0.602c-0.292,0.246 -0.454,0.709 -0.487,1.387c-0.029,0.74 -0.061,1.712 -0.096,2.914v14.015c0,3.361 0.826,5.843 2.477,7.446c1.652,1.604 4.098,2.406 7.337,2.406c0.939,0 2.008,-0.108 3.206,-0.324c1.199,-0.247 2.316,-0.74 3.352,-1.481c1.069,-0.74 1.96,-1.788 2.673,-3.145c0.744,-1.356 1.117,-3.16 1.117,-5.411c0,-2.436 -0.015,-4.518 -0.044,-6.244c0,-1.758 -0.015,-3.254 -0.045,-4.487c0,-1.264 -0.015,-2.343 -0.044,-3.238c-0.03,-0.894 -0.062,-1.711 -0.097,-2.451c-0.03,-0.678 -0.208,-1.141 -0.534,-1.388c-0.324,-0.246 -0.648,-0.447 -0.972,-0.601l0.044,-0.231c0.357,0.061 0.761,0.123 1.215,0.185c0.453,0.028 0.874,0.042 1.263,0.042c0.356,0 0.761,-0.014 1.215,-0.042c0.486,-0.061 0.907,-0.123 1.263,-0.185zM104.6963,9.4357l-0.292,0.093c-1.133,-2.344 -2.753,-4.209 -4.858,-5.597c-2.073,-1.388 -4.68,-2.081 -7.822,-2.081c-1.749,0 -3.417,0.354 -5.004,1.063c-1.587,0.679 -2.98,1.65 -4.179,2.914c-1.166,1.234 -2.105,2.729 -2.817,4.487c-0.713,1.757 -1.069,3.7 -1.069,5.828c0,2.127 0.356,4.07 1.069,5.828c0.712,1.757 1.652,3.268 2.818,4.532c1.198,1.234 2.591,2.19 4.178,2.868c1.587,0.678 3.255,1.017 5.004,1.017c3.109,0 5.636,-0.462 7.579,-1.387c1.976,-0.956 3.644,-2.405 5.004,-4.348l0.292,0.092l-0.097,2.961c-0.745,0.74 -1.604,1.403 -2.575,1.988c-0.972,0.555 -2.025,1.033 -3.158,1.434c-1.101,0.37 -2.251,0.648 -3.45,0.833c-1.198,0.216 -2.396,0.324 -3.595,0.324c-2.494,0 -4.874,-0.386 -7.142,-1.156c-2.267,-0.771 -4.259,-1.851 -5.976,-3.238c-1.716,-1.419 -3.077,-3.115 -4.081,-5.088c-1.004,-2.004 -1.506,-4.224 -1.506,-6.66c0,-2.436 0.502,-4.641 1.506,-6.615c1.004,-2.004 2.365,-3.715 4.081,-5.134c1.717,-1.418 3.709,-2.497 5.976,-3.237c2.268,-0.771 4.648,-1.157 7.142,-1.157c1.199,0 2.397,0.093 3.595,0.278c1.199,0.185 2.349,0.478 3.45,0.879c1.133,0.37 2.186,0.848 3.158,1.434c0.971,0.555 1.83,1.202 2.575,1.942zM155.9553,31.4987c-0.162,-0.028 -0.437,-0.059 -0.825,-0.092c-0.356,0 -0.745,-0.014 -1.166,-0.042c-0.422,0 -0.827,-0.015 -1.215,-0.043h-2.915c-0.388,0.028 -0.777,0.059 -1.166,0.092c-0.356,0.029 -0.631,0.059 -0.825,0.093l-0.045,-0.186c0.324,-0.154 0.648,-0.354 0.972,-0.601c0.324,-0.247 0.502,-0.709 0.534,-1.388c0.03,-0.74 0.044,-1.511 0.044,-2.313c0.03,-0.801 0.045,-1.711 0.045,-2.729v-3.468v-4.672v-4.672v-3.515c0,-1.017 -0.015,-1.912 -0.045,-2.682c0,-0.802 -0.014,-1.573 -0.044,-2.313c-0.03,-0.678 -0.208,-1.141 -0.534,-1.388c-0.324,-0.277 -0.648,-0.493 -0.972,-0.647l0.045,-0.185c0.194,0.061 0.469,0.108 0.825,0.139c0.389,0 0.778,0.014 1.166,0.042c0.421,0.028 0.826,0.042 1.215,0.042h1.7c0.389,-0.028 0.794,-0.042 1.215,-0.042c0.421,-0.028 0.81,-0.059 1.166,-0.092c0.388,-0.029 0.663,-0.059 0.825,-0.093l0.045,0.186c-0.356,0.154 -0.696,0.37 -1.021,0.647c-0.291,0.247 -0.453,0.709 -0.486,1.388c-0.029,0.74 -0.062,1.511 -0.097,2.312v21.739c0.03,0.802 0.062,1.573 0.097,2.313c0.03,0.678 0.192,1.141 0.486,1.387c0.325,0.247 0.665,0.447 1.021,0.602z" fill="currentColor"/></svg>