<svg viewBox="0 0 194 32" fill="none" xmlns="http://www.w3.org/2000/svg" xmlns:xlink="http://www.w3.org/1999/xlink" x="0" y="0"><path id="Vector_10" fill-rule="evenodd" clip-rule="evenodd" d="M0.0003,0.902l2.932,3.306v24.203l-2.173,3.166l13.309,0.021l-2.399,-2.914l-0.249,-8.716l12.833,0.069c3.89,-1.295 7.889,-4.056 8.081,-9.637c-0.061,-5.41 -3.364,-8.879 -7.198,-9.569zM10.9453,2.45v15.548l9.846,0.071c2.24,-1.807 3.939,-3.19 3.871,-7.528c-0.033,-3.537 -0.779,-6.621 -4.075,-8.091zM38.4933,0.725l2.932,3.308v24.202l-2.173,3.168l13.309,0.019l-2.399,-2.914l-0.249,-8.716h0.053l13.75,11.729l11.411,-0.094l-10.414,-9.008h-8.695l-3.064,-2.61l9.792,0.053c3.89,-1.295 7.888,-4.056 8.081,-9.638c-0.061,-5.409 -3.363,-8.879 -7.198,-9.568zM49.4373,2.273v15.548l9.847,0.072c2.241,-1.807 3.938,-3.191 3.87,-7.529c-0.032,-3.536 -0.778,-6.621 -4.074,-8.091zM86.1133,0.691h11.476l14.938,27.72c0.647,2.14 2.58,1.876 3.871,2.814h-14.464l2.174,-0.679l-0.136,-2.064l-3.735,-5.981l-12.698,0.071l-2.716,5.77c-0.091,0.656 -0.793,1.154 -0.272,1.969l1.019,0.985l-6.247,-0.141l2.717,-0.844l10.252,-21.599v-1.478l-4.332,-5.779zM88.3423,20.598l5.274,-9.986l5.491,9.93zM163.7153,0.751h11.473l14.94,27.72c0.65,2.141 2.58,1.876 3.87,2.815h-14.46l2.17,-0.681l-0.14,-2.064l-3.73,-5.979l-12.698,0.071l-2.716,5.768c-0.091,0.658 -0.792,1.156 -0.272,1.971l1.019,0.984l-6.246,-0.14l2.716,-0.844l10.257,-21.6v-1.479l-4.336,-5.777zM165.9433,20.659l5.275,-9.985l5.49,9.927zM120.3673,0.402l20.443,0.113c6.583,1.542 10.772,5.564 12.071,12.58l-0.055,5.472c-1.2,6.252 -5.133,10.565 -12.07,12.748l-20.498,0.058l-0.003,-0.662c3.116,-0.236 3.365,-0.591 3.373,-2.441v-24.935c-0.035,-1.368 -0.308,-2.219 -3.316,-2.313zM131.9873,2.536l-0.019,26.977c2.696,0.009 5.035,0.262 6.356,-0.412c2.995,-1.368 4.385,-3.468 4.513,-5.441l-0.072,-15.93c0.001,-2.548 -2.765,-4.347 -4.362,-4.816c-1.142,-0.423 -3.42,-0.44 -6.416,-0.378z" fill="currentColor" stroke="currentColor" stroke-width="1.02419" stroke-miterlimit="2.613"/></svg>