<svg viewBox="0 0 166.4818 33.1645" fill="none" xmlns="http://www.w3.org/2000/svg" xmlns:xlink="http://www.w3.org/1999/xlink" x="0" y="0"><path id="Vector_7" fill-rule="evenodd" clip-rule="evenodd" d="M150.179,0.656h16.303v2.597c-0.474,-0.159 -0.97,-0.241 -1.469,-0.242h-9.371v12.138h9.116c0.655,0 1.238,-0.072 1.723,-0.194v2.586c-0.413,-0.097 -0.982,-0.146 -1.687,-0.146h-9.152v12.552h9.091c0.499,0 1.093,-0.073 1.748,-0.231v2.792h-16.278c0.13,-0.491 0.196,-0.997 0.195,-1.505v-28.806c0,-0.631 -0.073,-1.153 -0.219,-1.541zM146.405,8.922l-4.71,-0.035c-0.231,-2.647 -1.748,-5.209 -5.086,-5.681c-7.15,-0.644 -9.165,7.209 -8.983,12.951c0.183,5.535 1.068,14.044 8.449,14.044c3.096,0 6.069,-3.18 5.972,-5.863l4.358,-0.035c-0.316,5.535 -6.664,8.739 -9.687,8.849c-10.329,0.352 -14.652,-6.531 -14.87,-16.353c-0.194,-8.896 3.448,-16.799 13.656,-16.799c8.74,0.122 10.427,5.293 10.901,8.922zM72.941,28.89l3.12,-2.61c1.626,2.683 2.962,3.909 6.191,3.909c3.277,0 6.033,-1.991 6.033,-5.51c0,-1.737 -0.705,-3.157 -2.1,-4.225c-0.632,-0.498 -2.234,-1.36 -4.759,-2.561c-3.775,-1.808 -7.453,-4.164 -7.453,-8.897c0,-5.973 5.074,-8.607 10.426,-8.802c3.169,-0.121 7.102,1.628 8.692,3.593l-3.168,2.44c-0.565,-1.054 -1.405,-1.936 -2.431,-2.552c-1.026,-0.615 -2.199,-0.941 -3.395,-0.943c-4.043,0 -7.247,4.685 -3.897,7.914c0.849,0.825 2.586,1.845 5.232,3.059c4.224,1.979 7.829,4.345 7.829,9.578c0,1.808 -0.473,3.495 -1.408,5.037c-1.881,3.107 -5.025,4.661 -9.419,4.661c-5.05,0 -6.045,-1.153 -9.493,-4.091zM28.489,0.656h16.289v2.597c-0.473,-0.159 -0.969,-0.241 -1.468,-0.242h-9.37v12.138h9.115c0.656,0 1.239,-0.072 1.724,-0.194v2.586c-0.413,-0.097 -0.983,-0.146 -1.674,-0.146h-9.165v12.552h9.091c0.498,0 1.093,-0.073 1.748,-0.231v2.792h-16.265c0.119,-0.493 0.18,-0.998 0.182,-1.505v-28.806c0,-0.631 -0.074,-1.153 -0.207,-1.541zM0,0.656h5.924v0.292c0,0.266 0.084,0.618 0.23,1.067l8.351,25.14l8.57,-25.249c0.134,-0.425 0.207,-0.837 0.207,-1.25h2.877c-0.292,0.509 -0.51,0.959 -0.644,1.359l-9.784,29.194c-0.097,0.28 -0.182,0.717 -0.254,1.3h-4.856c-0.074,-0.442 -0.183,-0.876 -0.328,-1.3l-9.589,-28.963c-0.221,-0.534 -0.452,-1.064 -0.693,-1.59zM62.914,17.262c3.885,-0.765 6.859,-3.739 6.859,-7.987c0,-5.573 -4.662,-8.62 -9.881,-8.62h-9.541c0.133,0.486 0.206,0.996 0.206,1.53v28.792c0,0.62 -0.073,1.142 -0.206,1.53h5.681c-0.139,-0.498 -0.209,-1.013 -0.207,-1.53v-13.229l1.821,0.194l9.517,14.565h5.717zM61.931,14.834c-1.031,0.728 -2.27,1.092 -3.69,1.092h-2.428v-12.95h2.173c1.858,0 3.302,0.46 4.334,1.382c1.408,1.276 2.124,2.999 2.124,5.16c0,2.331 -0.838,4.103 -2.513,5.317M120.901,31.185l-10.608,-29.473c-0.118,-0.341 -0.188,-0.696 -0.207,-1.056h-4.589c0,0.376 -0.061,0.776 -0.207,1.177l-10.28,29.352c-0.135,0.424 -0.353,0.862 -0.644,1.323h2.962c-0.012,-0.486 0.049,-0.935 0.182,-1.323l3.046,-8.656h11.714l3.011,8.657c0.158,0.472 0.23,0.909 0.23,1.322h6.143c-0.353,-0.498 -0.607,-0.947 -0.753,-1.323zM101.358,20.187l4.952,-14.384l5.087,14.384z" fill="currentColor"/></svg>