<svg viewBox="0 0 91 37.9843" fill="none" xmlns="http://www.w3.org/2000/svg" xmlns:xlink="http://www.w3.org/1999/xlink" x="0" y="0"><path id="Vector_8" d="M86.3323,36.8601l-13.482,-36.836l-0.009,-0.024h-0.266l-2.777,7.57l-5.054,13.78l-0.012,-0.011c-1.752,-1.534 -4.223,-2.492 -7.336,-2.849l-0.949,-0.098l0.942,-0.12c5.133,-0.915 8.583,-4.132 8.583,-8.008c0,-5.315 -5.038,-9.024 -12.253,-9.024h-15.014v0.269h4.362v27.463l-10.595,-28.948l-0.009,-0.024h-0.266l-2.777,7.57l-10.708,29.195l-0.066,0.008c-0.183,0.022 -0.364,0.04 -0.543,0.054c-0.269,0.021 -0.537,0.033 -0.806,0.033h-10.82l20.568,-35.351l0.152,-0.266h-25.154v10.936h0.267c0.047,-5.327 3.173,-10.67 10.08,-10.67h8.332l-20.722,35.616h27.917v-10.477h-0.267c-0.036,4.642 -2.688,9.052 -8.456,10.048l-0.183,0.031l4.392,-11.98h12.304l4.434,12.113h-4.374v0.265h17.166v-0.265h-4.392v-18.272h5.068c5.157,0 8.115,2.286 8.115,6.271v3.241c0,0.357 0.025,0.879 0.052,1.316v0.016l-2.724,7.427h-3.559v0.264h7.366v-0.264h-3.52l2.481,-6.763c0.005,0.065 0.007,0.105 0.007,0.105l0.069,0.609l0.066,0.403c0.413,2.494 1.375,4.327 2.855,5.448l0.213,0.154c1.125,0.776 2.523,1.169 4.158,1.169c2.164,0 3.608,-0.535 4.8,-1.796l-0.157,-0.146c-1.098,1.006 -2.019,1.413 -3.174,1.413c-1.967,0 -2.997,-2.368 -2.997,-4.703v-4.541c0.011,-1.127 -0.167,-2.248 -0.526,-3.317l-0.049,-0.141v-0.005h9l4.433,12.114h-4.373v0.265h14.855v-0.265zM23.5013,24.4821l6.061,-16.525l6.048,16.525zM48.5433,18.3221v-16.813h3.869c5.167,0 7.896,3.048 7.896,8.812c0,6.131 -1.566,8.001 -6.699,8.001zM66.9803,24.4821l-0.026,-0.066c-0.4,-0.966 -0.982,-1.848 -1.715,-2.598l-0.254,-0.251l-0.027,-0.026l4.979,-13.584l6.047,16.525z" fill="currentColor"/></svg>